<?xml version="1.0" encoding="utf-8"?>
<!-- Generator: Adobe Illustrator 16.0.0, SVG Export Plug-In . SVG Version: 6.00 Build 0)  -->
<!DOCTYPE svg PUBLIC "-//W3C//DTD SVG 1.1//EN" "http://www.w3.org/Graphics/SVG/1.1/DTD/svg11.dtd">
<svg version="1.1" id="Layer_1" xmlns="http://www.w3.org/2000/svg" xmlns:xlink="http://www.w3.org/1999/xlink" x="0px" y="0px"
	 width="1400px" height="980px" viewBox="0 0 1400 980" enable-background="new 0 0 1400 980" xml:space="preserve">
	 <defs>
        <style><![CDATA[
        .sprite { display: none; }
        .sprite:target { display: inline; }
        ]]></style>
    </defs>
<g>
	<g class="sprite" id="heart" fill="rgb(0,40,8)">
		<path d="M457.054,306.177c-1.47,0-2.862-0.666-3.784-1.811c-0.163-0.203-16.708-20.56-49.37-44.61
			c-34.862-25.672-39.682-45.849-39.696-63.827c-0.022-32.374,21.253-55.886,50.589-55.907c0.007,0,0.017,0,0.024,0
			c17.528,0,33.763,14.088,42.16,27.362c8.622-14.444,23.232-27.409,42.886-27.423c0.014,0,0.031,0,0.043,0
			c26.439,0,45.789,18.441,49.305,46.995c0.328,2.661-1.564,5.084-4.225,5.413c-2.673,0.33-5.085-1.564-5.413-4.226
			c-2.878-23.374-18.449-38.471-39.668-38.471c-0.012,0-0.022,0-0.033,0c-24.377,0.017-36.294,25.274-38.435,30.336
			c-0.78,1.843-2.68,3.057-4.609,2.963c-2-0.058-3.761-1.333-4.435-3.217c-4.381-12.245-21.197-30.022-37.575-30.022
			c-0.007,0-0.011,0-0.016,0c-24.093,0.017-40.905,19.012-40.886,46.188c0.011,14.375,2.784,31.744,35.743,56.017
			c25.015,18.418,40.67,34.503,47.39,41.958c6.709-7.467,22.342-23.573,47.329-42.029c17.446-12.886,28.143-25.111,32.701-37.375
			c0.934-2.511,3.726-3.793,6.243-2.86c2.514,0.936,3.793,3.731,2.859,6.244c-5.237,14.086-17.023,27.76-36.034,41.801
			c-32.626,24.098-49.141,44.479-49.304,44.682c-0.92,1.148-2.314,1.815-3.785,1.817
			C457.057,306.177,457.055,306.177,457.054,306.177z"/>
		<path d="M508.499,322.057L508.499,322.057c-1.472,0-2.865-0.666-3.787-1.813c-0.084-0.104-8.927-10.989-26.353-25.09
			c-2.084-1.686-2.407-4.744-0.72-6.828c1.687-2.086,4.745-2.409,6.829-0.721c11.754,9.511,19.722,17.561,24.023,22.229
			c5.434-5.925,16.735-17.267,34.145-30.124c23.802-17.582,25.787-30.031,25.779-40.318c-0.006-9.237-2.735-17.577-7.682-23.479
			c-5.08-6.06-12.215-9.263-20.637-9.263c-0.008,0-0.016,0-0.024,0c-13.316,0.009-22.958,11.637-27.17,21.593
			c-0.779,1.843-2.629,3.002-4.609,2.962c-2-0.057-3.76-1.333-4.434-3.219c-3.034-8.478-15.152-21.292-26.508-21.292
			c-0.003,0-0.007,0-0.009,0c-8.493,0.006-15.747,3.236-20.977,9.339c-5.101,5.952-7.906,14.278-7.898,23.444
			c0.006,8.813,1.375,19.416,17.656,33.729c2.013,1.772,2.21,4.841,0.44,6.853c-1.771,2.014-4.838,2.209-6.852,0.441
			c-18.402-16.182-20.946-29.276-20.954-41.016c-0.008-11.484,3.626-22.058,10.235-29.77c7.028-8.203,17.094-12.725,28.343-12.732
			c0.005,0,0.012,0,0.017,0c12.643,0,24.388,9.547,31.047,19.108c6.662-10.277,17.416-19.145,31.666-19.154c0.01,0,0.021,0,0.032,0
			c11.386,0,21.094,4.404,28.079,12.736c6.408,7.647,9.941,18.198,9.95,29.709c0.01,13.591-3.583,28.83-29.721,48.136
			c-23.9,17.652-36,32.57-36.12,32.72C511.364,321.388,509.971,322.057,508.499,322.057z"/>
	</g>
	<g class="sprite" id="flowers" fill="rgb(0,40,8)">
		<path d="M1099.784,459.375c-0.421,0-0.85-0.07-1.267-0.214c-2.03-0.7-3.106-2.911-2.405-4.939
			c2.989-8.662,2.728-16.542-0.781-23.421c-4.344-8.51-12.081-12.51-13.099-12.819c-1.263-0.353-2.449-1.036-3.535-1.95
			c-2.01,0.332-3.957,0.364-5.807,0.026c-10.534-1.912-19.682-11.321-20.828-21.42c-0.896-7.882,3.191-14.381,11.214-17.83
			c7.911-3.401,18.003-3.078,26.161,3.366c5.904-4.508,12.16-8.059,16.596-9.015c5.607-1.204,8.264,1.274,9.352,2.862
			c2.467,3.605,1.435,8.961-3.075,15.918c-5.156,7.958-14.424,17.354-23.867,22.501c4.188,2.525,9.891,7.346,13.639,14.501
			c4.664,8.908,5.126,18.939,1.375,29.813C1102.9,458.365,1101.395,459.375,1099.784,459.375z M1073.622,382.428
			c-2.523,0-5.003,0.541-7.279,1.518c-4.857,2.088-7.066,5.392-6.563,9.817c0.655,5.76,6.327,12.821,13.84,14.519
			c-0.988-2.78-1.373-5.695-0.946-8.102c0.736-4.135,5.068-9.677,10.613-14.828C1080.219,383.329,1076.883,382.428,1073.622,382.428
			z M1088.84,390.779c-4.809,4.463-8.162,8.772-8.515,10.758c-0.285,1.591,0.336,3.765,1.229,5.578
			c3.364-1.402,7.166-3.787,10.971-6.902c0.068-1.009,0.011-2.619-0.729-4.261C1090.915,393.995,1089.922,392.277,1088.84,390.779z
			 M1094.826,385.777c1.495,2.016,2.86,4.336,4.051,6.981c0.164,0.362,0.313,0.723,0.44,1.083c0.226-0.239,0.45-0.481,0.672-0.726
			c6.573-7.2,8.954-12.69,8.944-14.515c-0.988-0.011-3.575,0.493-8.186,3.206C1098.715,383.003,1096.723,384.354,1094.826,385.777z"
			/>
		<path d="M1085.688,461.509c-6.652,0-12.239-1.745-16.67-5.216c-11.183-8.76-12.848-26.082-14.456-42.835
			c-0.554-5.766-1.077-11.212-1.975-16.043c-0.393-2.109,1-4.136,3.108-4.529c2.105-0.379,4.139,1,4.529,3.11
			c0.96,5.166,1.499,10.778,2.07,16.719c1.452,15.122,2.953,30.759,11.514,37.463c4.105,3.217,9.721,4.245,17.172,3.15
			c9.426-1.386,16.534-4.1,21.126-8.066c1.624-1.402,4.076-1.224,5.479,0.402c1.402,1.624,1.222,4.076-0.402,5.478
			c-5.807,5.014-14.011,8.245-25.073,9.872C1089.871,461.344,1087.729,461.509,1085.688,461.509z"/>
		<path d="M1120.662,417.35c-1.701,0-3.262-1.128-3.74-2.849c-0.152-0.546-0.314-1.098-0.482-1.655
			c-4.866-16.097-7.967-35.208-8.098-36.015c-0.34-2.117,1.1-4.11,3.219-4.451c2.119-0.349,4.109,1.1,4.451,3.217
			c0.032,0.193,3.152,19.414,7.863,35c0.187,0.614,0.365,1.227,0.533,1.83c0.572,2.067-0.639,4.207-2.707,4.782
			C1121.356,417.303,1121.008,417.35,1120.662,417.35z"/>
		<path d="M1144.874,486.987c-0.792,0-1.593-0.243-2.283-0.746c-1.733-1.263-2.117-3.693-0.854-5.426
			c5.396-7.406,7.452-15.017,6.112-22.623c-1.659-9.41-7.888-15.501-8.768-16.095c-1.104-0.708-2.041-1.709-2.811-2.9
			c-2.019-0.27-3.889-0.814-5.559-1.677c-9.512-4.911-15.502-16.588-13.643-26.581c1.453-7.799,7.264-12.815,15.947-13.762
			c8.566-0.925,18.114,2.329,24.025,10.881c6.967-2.581,13.98-4.155,18.512-3.757c5.712,0.487,7.527,3.638,8.1,5.474
			c1.304,4.171-1.254,8.99-7.604,14.321c-7.26,6.098-18.873,12.366-29.409,14.522c3.265,3.641,7.307,9.923,8.793,17.862
			c1.852,9.884-0.645,19.609-7.418,28.909C1147.256,486.433,1146.073,486.987,1144.874,486.987z M1153.367,418.024
			c-5.905,2.858-10.374,5.993-11.295,7.79c-0.737,1.439-0.779,3.7-0.457,5.693c3.627-0.355,7.959-1.523,12.51-3.386
			c0.361-0.942,0.778-2.498,0.553-4.285C1154.406,421.707,1153.961,419.772,1153.367,418.024z M1135.913,404.789
			c-0.688,0-1.373,0.038-2.054,0.112c-5.258,0.573-8.336,3.083-9.152,7.461c-1.061,5.701,2.295,14.113,8.981,17.936
			c-0.13-2.947,0.356-5.849,1.47-8.024c1.911-3.736,7.68-7.767,14.488-11.067C1145.993,406.79,1140.918,404.789,1135.913,404.789z
			 M1160.554,414.995c0.84,2.367,1.466,4.983,1.83,7.864c0.048,0.37,0.079,0.76,0.095,1.168c0.288-0.165,0.577-0.333,0.865-0.502
			c8.395-4.96,12.276-9.512,12.802-11.26c-0.907-0.303-3.562-0.578-8.766,0.667C1165.085,413.481,1162.782,414.189,1160.554,414.995
			z"/>
		<path d="M1146.875,487.034c-3.385,0-7.032-0.299-10.953-0.897c-9.528-1.453-16.493-5.248-20.699-11.279
			c-8.125-11.653-4.643-28.704-1.272-45.193c1.159-5.674,2.255-11.034,2.811-15.917c0.245-2.131,2.164-3.662,4.3-3.419
			c2.131,0.243,3.662,2.168,3.419,4.3c-0.595,5.221-1.724,10.745-2.918,16.591c-3.043,14.883-6.188,30.276,0.033,39.192
			c2.983,4.279,8.054,6.909,15.496,8.043c12.626,1.927,21.595,0.438,27.415-4.546c5.867-5.019,8.74-13.755,8.787-26.707
			c0.063-16.813,2.693-35.996,2.807-36.804c0.295-2.126,2.248-3.609,4.381-3.315c2.123,0.296,3.608,2.257,3.313,4.381
			c-0.027,0.193-2.671,19.484-2.731,35.769c-0.058,15.343-3.819,26-11.504,32.578
			C1163.914,484.643,1156.436,487.034,1146.875,487.034z"/>
		<path d="M1134.572,403.359c-0.005,0-0.008,0-0.014,0c-2.145-0.005-3.879-1.75-3.871-3.896c0.041-13.58,8.226-23.366,13.914-27.834
			c-9.999-3.953-20.344-12.142-26.436-19.406c-5.325-6.354-7.008-11.543-5-15.425c0.885-1.707,3.229-4.497,8.93-3.983
			c4.52,0.406,11.164,3.164,17.574,6.915c7.308-7.396,17.28-8.958,25.555-6.543c8.385,2.439,13.236,8.391,13.311,16.324
			c0.1,10.164-7.832,20.622-18.05,23.806c-1.794,0.559-3.737,0.778-5.768,0.685c-0.966,1.043-2.063,1.868-3.277,2.375
			c-1.69,0.75-12.942,8.975-12.984,23.11C1138.449,401.627,1136.711,403.359,1134.572,403.359z M1146.407,344.114
			c6.133,4.433,11.114,9.404,12.348,13.417c0.72,2.334,0.695,5.276,0.054,8.155c7.249-2.604,12.016-10.304,11.958-16.102
			c-0.042-4.455-2.636-7.461-7.713-8.941C1157.604,339.061,1151.372,339.887,1146.407,344.114z M1139.06,359.991
			c4.157,2.626,8.224,4.529,11.733,5.509c0.664-1.908,1.014-4.14,0.537-5.684c-0.592-1.929-4.449-5.794-9.771-9.635
			c-0.887,1.618-1.661,3.446-2.299,5.497C1138.726,357.4,1138.867,359.005,1139.06,359.991z M1120.066,340.564
			c0.13,1.55,3.132,6.807,10.724,13.307c0.253,0.216,0.505,0.429,0.757,0.639c0.085-0.398,0.184-0.78,0.294-1.134
			c0.861-2.773,1.931-5.243,3.167-7.425c-2.056-1.182-4.198-2.278-6.361-3.217C1123.625,340.557,1120.958,340.403,1120.066,340.564z
			"/>
		<path d="M1174.613,378.252c-2.113,0-3.842-1.692-3.883-3.813c-0.035-1.912-0.087-3.825-0.138-5.724
			c-0.162-5.971-0.313-11.611,0.007-16.861c0.133-2.14,1.971-3.775,4.116-3.64c2.14,0.13,3.771,1.972,3.638,4.114
			c-0.299,4.908-0.152,10.384,0.004,16.178c0.053,1.919,0.104,3.854,0.14,5.789c0.04,2.145-1.665,3.917-3.812,3.957
			C1174.662,378.252,1174.636,378.252,1174.613,378.252z"/>
		<path d="M1111.824,379.678c-0.219,0-0.44-0.017-0.664-0.057c-2.112-0.364-3.531-2.373-3.167-4.487
			c2.787-16.163,4.737-36.711,4.756-36.916c0.201-2.137,2.091-3.704,4.233-3.502c2.136,0.201,3.702,2.095,3.501,4.231
			c-0.019,0.209-1.995,21.047-4.835,37.507C1115.321,378.345,1113.68,379.678,1111.824,379.678z"/>
		<path d="M1186.535,456.176c-1.438,0-2.818-0.8-3.493-2.177c-5.057-10.336-5.822-20.351-2.28-29.763
			c2.844-7.558,7.913-13.039,11.76-16.055c-10.004-3.953-20.348-12.143-26.441-19.408c-5.327-6.354-7.012-11.545-5.001-15.427
			c0.884-1.707,3.226-4.489,8.929-3.983c4.52,0.406,11.164,3.164,17.574,6.915c7.307-7.396,17.281-8.956,25.556-6.543
			c8.383,2.438,13.236,8.39,13.31,16.324c0.097,10.164-7.833,20.622-18.051,23.806c-1.792,0.559-3.726,0.77-5.766,0.685
			c-0.967,1.043-2.064,1.866-3.278,2.375c-0.963,0.426-8.153,5.34-11.421,14.317c-2.641,7.257-1.938,15.11,2.09,23.343
			c0.94,1.927,0.145,4.254-1.783,5.197C1187.688,456.049,1187.107,456.176,1186.535,456.176z M1194.318,380.662
			c6.134,4.435,11.115,9.404,12.348,13.417c0.721,2.334,0.695,5.276,0.056,8.155c7.248-2.604,12.014-10.304,11.958-16.102
			c-0.042-4.453-2.637-7.461-7.716-8.941C1205.517,375.607,1199.285,376.433,1194.318,380.662z M1186.972,396.539
			c4.157,2.626,8.224,4.529,11.734,5.509c0.664-1.908,1.013-4.14,0.536-5.684c-0.593-1.929-4.449-5.792-9.771-9.635
			c-0.887,1.618-1.66,3.446-2.298,5.495C1186.638,393.946,1186.78,395.551,1186.972,396.539z M1167.979,377.112
			c0.129,1.55,3.131,6.807,10.728,13.309c0.25,0.216,0.505,0.431,0.759,0.641c0.085-0.412,0.183-0.794,0.288-1.138
			c0.861-2.773,1.931-5.243,3.167-7.426c-2.055-1.181-4.199-2.277-6.361-3.217C1171.541,377.104,1168.87,376.949,1167.979,377.112z"
			/>
		<path d="M1195.993,456.851c-0.385,0-0.775-0.005-1.167-0.015c-7.407-0.172-13.817-1.242-19.059-3.183
			c-2.012-0.745-3.039-2.979-2.292-4.992c0.743-2.012,2.98-3.033,4.989-2.295c4.433,1.643,9.997,2.551,16.54,2.705
			c7.512,0.152,12.978-1.534,16.659-5.23c7.673-7.703,7.25-23.405,6.84-38.591c-0.16-5.967-0.314-11.602,0.008-16.848
			c0.133-2.139,1.984-3.785,4.114-3.64c2.142,0.131,3.771,1.973,3.64,4.114c-0.3,4.905-0.152,10.375,0.004,16.165
			c0.455,16.823,0.924,34.219-9.104,44.282C1212.189,454.321,1205.069,456.851,1195.993,456.851z"/>
		<path d="M1161.066,414.606c-0.215,0-0.432-0.018-0.651-0.053c-2.115-0.357-3.541-2.362-3.185-4.476
			c2.684-15.926,3.408-34.901,3.416-35.091c0.079-2.143,1.936-3.841,4.024-3.738c2.146,0.08,3.819,1.881,3.74,4.026
			c-0.03,0.795-0.751,19.659-3.521,36.093C1164.572,413.263,1162.926,414.606,1161.066,414.606z"/>
		<path d="M1130.59,549.277c-8.778,0-15.917-6.536-15.917-14.568s7.139-14.568,15.917-14.568c8.773,0,15.911,6.536,15.911,14.568
			S1139.363,549.277,1130.59,549.277z M1130.59,527.91c-4.494,0-8.148,3.049-8.148,6.799c0,3.749,3.654,6.8,8.148,6.8
			c4.49,0,8.143-3.051,8.143-6.8C1138.732,530.959,1135.08,527.91,1130.59,527.91z"/>
		<path d="M1131.757,528.02c-2.052,0-3.769-1.61-3.876-3.683c-0.882-17.114,9.117-41.9,9.544-42.947
			c0.808-1.988,3.072-2.943,5.061-2.134c1.987,0.808,2.942,3.075,2.135,5.062c-0.099,0.241-9.773,24.239-8.979,39.617
			c0.11,2.144-1.538,3.97-3.679,4.079C1131.894,528.018,1131.825,528.02,1131.757,528.02z"/>
		<path d="M1123.456,529.992c-1.204,0-2.393-0.558-3.151-1.61c-17.191-23.793-25.023-70.04-25.348-71.998
			c-0.351-2.114,1.079-4.115,3.196-4.466c2.116-0.351,4.116,1.077,4.468,3.193c0.076,0.463,7.859,46.411,23.98,68.722
			c1.257,1.736,0.865,4.166-0.873,5.423C1125.039,529.754,1124.244,529.992,1123.456,529.992z"/>
		<path d="M1140.038,531.993c-1.015,0-2.027-0.395-2.788-1.18c-1.494-1.54-1.457-3.998,0.084-5.492
			c23.658-22.95,50.866-73.675,51.14-74.183c1.009-1.893,3.364-2.608,5.256-1.599c1.893,1.011,2.608,3.365,1.597,5.256
			c-1.135,2.126-28.064,52.314-52.584,76.102C1141.987,531.629,1141.012,531.993,1140.038,531.993z"/>
		<path d="M1102.963,557.745c-1.077,0-3.13-0.362-4.769-2.786c-4.149-6.128-4.652-26.602-1.726-33.917
			c0.884-2.205,2.623-3.809,4.899-4.512c7.225-2.236,19.185,5.247,22.678,7.592c1.782,1.195,2.256,3.607,1.062,5.388
			c-1.192,1.777-3.604,2.262-5.386,1.064c-6.358-4.254-14.339-7.536-16.123-6.599c-2.258,5.787-1.266,20.88,0.495,25.576
			c2.859-1.403,9.142-5.985,14.731-10.883c1.611-1.419,4.065-1.251,5.48,0.36c1.413,1.612,1.253,4.067-0.36,5.481
			C1118.309,549.453,1108.088,557.745,1102.963,557.745z"/>
		<path d="M1155.738,560.117c-0.493,0.003-0.99-0.067-1.479-0.208c-6.134-1.754-14.974-12.639-17.536-15.933
			c-1.318-1.694-1.013-4.133,0.679-5.451c1.692-1.318,4.135-1.016,5.451,0.679c3.776,4.85,8.937,10.317,11.99,12.415
			c1.813-5.166,2.237-20.311,0.957-25.301c-2.302,0.242-7.883,2.998-12.549,6.267c-1.755,1.228-4.176,0.807-5.409-0.95
			c-1.231-1.756-0.808-4.177,0.948-5.409c3.986-2.8,13.897-9.123,19.817-7.348c1.952,0.586,3.437,1.946,4.181,3.831
			c2.104,5.34,2.513,29.549-2.843,35.453C1158.792,559.435,1157.288,560.117,1155.738,560.117z"/>
		<path d="M1164.181,590.666c-0.136,0-0.269-0.007-0.404-0.02c-0.652-0.068-16.151-1.797-29.892-13.197
			c-11.842-9.828-14.203-32.796-14.298-33.77c-0.207-2.133,1.353-4.029,3.488-4.238c2.141-0.215,4.034,1.351,4.245,3.483
			c0.018,0.207,2.149,20.765,11.527,28.546c5.277,4.379,10.89,7.121,15.521,8.817l-0.596-0.782c-0.801-1.054-1.01-2.438-0.559-3.68
			c0.452-1.241,1.503-2.168,2.793-2.458l0.921-0.211c-8.519-5.707-21.2-15.61-26.139-26.721c-0.87-1.962,0.011-4.257,1.973-5.128
			c1.961-0.876,4.256,0.013,5.128,1.971c6.498,14.619,30.793,28.022,31.037,28.156c1.418,0.774,2.207,2.346,1.985,3.946
			c-0.224,1.601-1.413,2.894-2.987,3.251l-4.317,0.979l3.663,4.821c0.938,1.232,1.053,2.905,0.294,4.254
			C1166.871,589.917,1165.572,590.666,1164.181,590.666z"/>
		<path d="M1112.795,637.057c-2.049,0-3.763-1.604-3.875-3.672c-0.594-10.851,10.229-85.384,10.689-88.552
			c0.307-2.122,2.277-3.584,4.402-3.284c2.124,0.309,3.594,2.281,3.285,4.403c-3.109,21.363-11.076,78.642-10.619,87.008
			c0.115,2.143-1.525,3.973-3.666,4.09C1112.939,637.055,1112.867,637.057,1112.795,637.057z"/>
		<path d="M1127.99,644.758c-0.026,0-0.049,0-0.075,0c-2.146-0.041-3.851-1.813-3.809-3.958l1.439-75.831
			c0.04-2.146,1.806-3.783,3.958-3.81c2.144,0.042,3.85,1.813,3.809,3.958l-1.441,75.83
			C1131.833,643.068,1130.1,644.758,1127.99,644.758z"/>
		<path d="M1145.255,634.941c-1.924,0-3.597-1.431-3.848-3.392l-7.05-55.142c-0.271-2.128,1.233-4.074,3.361-4.346
			c2.126-0.292,4.071,1.231,4.345,3.359l7.05,55.142c0.271,2.128-1.232,4.074-3.36,4.346
			C1145.586,634.932,1145.421,634.941,1145.255,634.941z"/>
	</g>
	<g class="sprite" id="church" fill="rgb(0,40,8)">
		<path d="M917.369,431.042c-0.015,0-0.026,0-0.038,0H862.63c-1.62,0-3.134-0.808-4.037-2.156c-0.899-1.347-1.069-3.054-0.451-4.552
			l27.35-66.237c0.75-1.817,2.522-3.003,4.487-3.003c1.967,0,3.738,1.186,4.487,3.003l27.129,65.7c0.402,0.706,0.63,1.521,0.63,2.39
			C922.225,428.869,920.051,431.042,917.369,431.042z M869.888,421.331h40.186l-20.095-48.659L869.888,421.331z"/>
		<path d="M898.389,472.768h-16.816c-2.681,0-4.855-2.173-4.855-4.855v-22.446c0-7.312,5.95-13.261,13.262-13.261
			c7.313,0,13.265,5.95,13.265,13.261v22.446C903.243,470.594,901.069,472.768,898.389,472.768z M886.428,463.057h7.105v-17.591
			c0-1.958-1.594-3.55-3.555-3.55c-1.958,0-3.551,1.593-3.551,3.55V463.057z"/>
		<path d="M911.175,486.681h-44.157c-2.681,0-4.855-2.173-4.855-4.855v-55.639c0-2.682,2.175-4.855,4.855-4.855h44.157
			c2.683,0,4.855,2.174,4.855,4.855v55.639C916.03,484.508,913.857,486.681,911.175,486.681z M871.873,476.97h34.446v-45.928
			h-34.446V476.97z"/>
		<path d="M916.855,640.022h-52.712c-2.683,0-4.855-2.174-4.855-4.855v-70.37c0-17.21,14.002-31.21,31.212-31.21
			s31.211,14,31.211,31.21v70.37C921.711,637.849,919.537,640.022,916.855,640.022z M868.998,630.312H912v-65.515
			c0-11.855-9.645-21.5-21.5-21.5s-21.502,9.645-21.502,21.5V630.312z"/>
		<path d="M969.497,640.022H808.553c-2.682,0-4.855-2.174-4.855-4.855V522.281c0-2.683,2.174-4.856,4.855-4.856h160.944
			c2.683,0,4.855,2.174,4.855,4.856v112.886C974.353,637.849,972.18,640.022,969.497,640.022z M813.409,630.312h151.233V527.137
			H813.409V630.312z"/>
		<path d="M969.497,527.137H808.693c-2.077,0-3.924-1.322-4.594-3.287c-0.672-1.968-0.017-4.143,1.628-5.412l52.396-40.455
			c0.85-0.656,1.893-1.013,2.966-1.013H917.1c1.074,0,2.119,0.357,2.969,1.013l52.397,40.455c1.643,1.27,2.299,3.444,1.627,5.41
			C973.422,525.814,971.574,527.137,969.497,527.137z M822.928,517.425h132.336l-39.819-30.744h-52.697L822.928,517.425z"/>
		<path d="M889.979,364.805c-2.683,0-4.855-2.173-4.855-4.855v-17.191c0-2.682,2.173-4.855,4.855-4.855
			c2.682,0,4.855,2.173,4.855,4.855v17.191C894.834,362.631,892.66,364.805,889.979,364.805z"/>
	</g>
	<g class="sprite" id="letter" fill="rgb(0,40,8)">
		<path d="M599.79,582.248c-0.001,0-0.002,0-0.003,0c-1.177,0-2.291-0.535-3.027-1.451c-0.166-0.205-8.341-10.223-24.396-22.065
			c-17.944-13.232-20.418-23.729-20.418-33.1c0-17.029,11.26-29.39,26.772-29.39c8.467,0,16.346,6.15,21.033,12.526
			c4.645-6.799,11.934-12.526,21.501-12.526c15.532,0,26.381,12.085,26.381,29.39c0,9.371-2.474,19.867-20.418,33.1
			c-16.141,11.905-24.317,21.967-24.398,22.067C602.08,581.715,600.966,582.248,599.79,582.248z M578.717,504.011
			c-11.188,0-19.003,8.891-19.003,21.621c0,6.831,1.333,15.103,17.26,26.849c11.394,8.404,18.955,15.866,22.815,20.017
			c3.861-4.15,11.42-11.612,22.815-20.017c15.927-11.746,17.261-20.018,17.261-26.849c0-10.762-5.755-21.621-18.613-21.621
			c-8.74,0-15.098,7.685-17.887,14.266c-0.624,1.475-2.12,2.39-3.689,2.367c-1.6-0.046-3.007-1.069-3.546-2.578
			C594.134,512.472,586.171,504.011,578.717,504.011z"/>
		<path d="M711.582,608.84H487.997c-2.145,0-3.884-1.738-3.884-3.884V435.019c0-2.145,1.739-3.884,3.884-3.884h223.585
			c2.145,0,3.884,1.739,3.884,3.884v169.937C715.466,607.102,713.727,608.84,711.582,608.84z M491.881,601.072h215.816V438.903
			H491.881V601.072z"/>
		<path d="M639.214,513.395c-0.976,0-1.951-0.363-2.706-1.098c-1.539-1.494-1.574-3.954-0.08-5.493l72.367-74.491
			c1.497-1.537,3.955-1.575,5.493-0.08s1.574,3.955,0.079,5.493L642,512.217C641.239,513.001,640.227,513.395,639.214,513.395z"/>
		<path d="M560.459,513.49c-1.013,0-2.024-0.396-2.786-1.178l-72.462-74.587c-1.495-1.538-1.459-3.998,0.08-5.493
			c1.539-1.49,3.997-1.458,5.493,0.08l72.462,74.586c1.495,1.537,1.459,3.997-0.08,5.492
			C562.411,513.124,561.435,513.49,560.459,513.49z"/>
	</g>
	<g class="sprite" id="cake" fill="rgb(0,40,8)">
		<path d="M298.926,412.374c-0.003,0-0.005,0-0.01,0c-1.469-0.002-2.86-0.668-3.781-1.813c-0.044-0.055-5.162-6.327-15.255-13.771
			c-12.386-9.134-14.093-16.544-14.093-23.192c0-12.322,8.234-21.264,19.58-21.264c5.227,0,10.037,2.998,13.47,6.662
			c3.345-3.793,8.022-6.662,13.894-6.662c5.111,0,9.646,1.798,13.114,5.198c1.916,1.877,1.946,4.952,0.068,6.866
			c-1.88,1.912-4.953,1.946-6.866,0.068c-1.64-1.606-3.765-2.422-6.317-2.422c-5.887,0-9.002,6.949-9.337,7.742
			c-0.78,1.841-2.649,3.037-4.611,2.959c-2-0.059-3.759-1.337-4.432-3.22c-1.055-2.953-5.5-7.48-8.983-7.48
			c-6.818,0-9.87,5.803-9.87,11.554c0,3.143,0,7.894,10.146,15.378c6.034,4.449,10.451,8.521,13.279,11.375
			c2.829-2.854,7.246-6.927,13.279-11.375c1.108-0.818,2.131-1.629,3.04-2.413c2.028-1.756,5.094-1.526,6.848,0.505
			c1.751,2.029,1.524,5.096-0.506,6.847c-1.094,0.944-2.311,1.912-3.618,2.875c-10.093,7.444-15.211,13.716-15.261,13.779
			C301.783,411.708,300.392,412.374,298.926,412.374z"/>
		<path d="M341.018,415.352c-0.003,0-0.005,0-0.009,0c-1.467-0.004-2.856-0.666-3.776-1.808c-0.105-0.129-5.222-6.373-15.26-13.777
			c-12.386-9.134-14.093-16.544-14.093-23.192c0-12.322,8.235-21.265,19.58-21.265c5.227,0,10.037,2.999,13.471,6.663
			c3.345-3.793,8.022-6.663,13.893-6.663c11.2,0,19.328,8.942,19.328,21.265c0,6.647-1.707,14.058-14.093,23.192
			c-10.093,7.444-15.21,13.716-15.261,13.779C343.875,414.686,342.484,415.352,341.018,415.352z M327.459,365.021
			c-6.818,0-9.869,5.804-9.869,11.554c0,3.143,0,7.894,10.146,15.378c6.033,4.449,10.45,8.521,13.279,11.376
			c2.829-2.855,7.246-6.927,13.279-11.376c10.146-7.484,10.146-12.235,10.146-15.378c0-5.33-2.519-11.554-9.617-11.554
			c-5.887,0-9.001,6.949-9.337,7.742c-0.781,1.842-2.642,3.006-4.611,2.959c-2-0.059-3.759-1.337-4.432-3.22
			C335.388,369.548,330.943,365.021,327.459,365.021z"/>
		<path d="M367.695,469.25h-100.27c-2.682,0-4.855-2.174-4.855-4.855v-43.091c0-8.634,7.83-15.659,17.456-15.659h75.07
			c9.625,0,17.455,7.025,17.455,15.659v43.091C372.55,467.076,370.377,469.25,367.695,469.25z M272.28,459.539h90.56v-38.236
			c0-3.224-3.547-5.948-7.745-5.948h-75.07c-4.198,0-7.745,2.724-7.745,5.948V459.539z"/>
		<path d="M300.078,451.495c-0.045,0-0.089,0-0.134,0c-14.084-0.121-14.011-14.406-13.98-20.508c0.003-0.818,0.01-1.584-0.009-2.269
			c-0.718-0.391-2.262-0.506-3.01-0.218c-1.136,7.05-8.74,9.618-15.913,9.053c-2.672-0.218-4.663-2.561-4.446-5.235
			c0.219-2.665,2.564-4.677,5.214-4.446l0,0c2.381,0.177,5.108-0.415,5.599-0.999c0.582-5.04,5.187-8.45,11.212-8.232
			c6.125,0.211,10.76,4.033,11.023,9.085c0.05,0.963,0.047,2.09,0.041,3.311c-0.049,9.652,1.357,10.722,4.354,10.746
			c0.018,0,0.036,0,0.055,0c1.357,0,1.987-0.441,2.423-0.874c2.692-2.674,2.681-10.304,2.677-12.812v-0.362
			c0-3.363,1.685-6.382,4.623-8.286c2.166-1.404,4.958-2.176,7.866-2.176c6.839,0,11.803,4.083,11.803,9.71l-0.001,1.218
			c-0.011,4.766-0.025,10.167,1.978,12.174c0.931,0.933,2.634,1.407,5.061,1.407c1.236,0,1.374-1.299,1.374-1.312
			c0-2.682,2.173-4.85,4.855-4.85s4.855,2.177,4.855,4.859c0,5.297-4.238,11.014-11.084,11.014c-5.101,0-9.116-1.434-11.935-4.26
			c-4.849-4.859-4.83-12.402-4.814-19.057l0.001-0.791c-0.462-0.231-1.479-0.489-2.729-0.372c-1.331,0.129-2.061,0.61-2.177,0.77
			l0.035,0.3c0.007,4.244,0.021,14.188-5.545,19.715C306.911,450.219,303.708,451.495,300.078,451.495z"/>
		<path d="M367.695,443.516c-1.419,0-8.705-0.223-12.773-4.633c-1.923-2.084-2.815-4.73-2.58-7.653
			c0.076-0.952-0.064-1.536-0.228-1.674c-0.352-0.302-1.493-0.472-2.434-0.247c-0.989,0.239-0.904,1.377-0.821,1.855
			c0.457,2.642-1.314,5.155-3.957,5.612c-2.649,0.444-5.155-1.314-5.612-3.958c-0.734-4.245,0.822-11.196,8.119-12.95
			c3.142-0.757,7.684-0.542,11.017,2.308c1.872,1.601,4.015,4.607,3.594,9.834c-0.012,0.153,0,0.237,0.005,0.257
			c0.424,0.71,3.448,1.538,5.669,1.538c2.682,0,4.855,2.174,4.855,4.855C372.55,441.343,370.377,443.516,367.695,443.516z"/>
		<path d="M385.31,536.253h-135.5c-2.682,0-4.855-2.173-4.855-4.855v-52.405c0-10.727,9.816-19.453,21.881-19.453h101.447
			c12.066,0,21.883,8.726,21.883,19.453v52.405C390.166,534.08,387.992,536.253,385.31,536.253z M254.666,526.542h125.789v-47.55
			c0-5.373-5.46-9.743-12.171-9.743H266.836c-6.711,0-12.17,4.37-12.17,9.743V526.542z"/>
		<path d="M293.936,518.087c-0.055,0-0.111,0-0.166,0c-17.333-0.147-17.245-17.605-17.201-25.995
			c0.006-1.413,0.017-2.713-0.042-3.825c-0.017-0.32-1.465-1.377-3.888-1.46c-1.745-0.074-3.391,0.482-3.47,1.138
			c-1.225,10.094-12.995,11.85-19.752,11.308c-2.673-0.219-4.663-2.561-4.446-5.235c0.217-2.668,2.564-4.629,5.222-4.445
			c2.629,0.201,9.037-0.329,9.337-2.8c0.723-5.942,6.255-9.885,13.445-9.67c7.37,0.254,12.943,4.737,13.25,10.661
			c0.066,1.273,0.062,2.763,0.054,4.377c-0.065,12.695,1.563,16.187,7.574,16.237c1.904,0.019,3.395-0.515,4.565-1.677
			c4.142-4.112,4.127-14.583,4.122-18.524l-0.001-0.49c0-4.013,1.942-7.48,5.469-9.766c2.653-1.718,6.099-2.666,9.701-2.666
			c8.254,0,14.245,4.802,14.245,11.417l-0.002,1.636c-0.017,7.105-0.035,14.451,3.172,17.666c1.612,1.617,4.245,2.403,8.046,2.403
			c3.242,0,3.563-3.434,3.563-3.468c0-2.682,2.173-4.855,4.855-4.855c2.681,0,4.855,2.174,4.855,4.855
			c0,6.337-5.074,13.178-13.273,13.178c-6.423,0-11.443-1.768-14.921-5.256c-6.052-6.067-6.029-15.46-6.008-24.545l0.003-1.614
			c0-0.772-2.023-1.707-4.535-1.707c-1.7,0-3.353,0.414-4.421,1.105c-1.038,0.673-1.038,1.263-1.038,1.616l0.001,0.474
			c0.007,5.524,0.026,18.464-6.99,25.43C302.294,516.534,298.381,518.087,293.936,518.087z"/>
		<path d="M385.31,507.306c-1.099,0-10.886-0.162-16.008-5.712c-2.268-2.458-3.318-5.587-3.039-9.049
			c0.146-1.818-0.157-3.063-0.899-3.698c-1.055-0.903-3.269-1.062-4.796-0.694c-2.56,0.617-2.591,3.089-2.382,4.51
			c0.387,2.629-1.408,5.113-4.031,5.534c-2.619,0.417-5.094-1.314-5.547-3.934c-0.883-5.104,0.97-13.454,9.69-15.552
			c3.835-0.92,9.36-0.681,13.378,2.756c2.229,1.906,4.777,5.512,4.266,11.858c-0.069,0.87,0.147,1.299,0.493,1.676
			c1.597,1.743,6.25,2.578,8.89,2.593c2.675,0.016,4.842,2.194,4.833,4.871C390.15,505.139,387.986,507.306,385.31,507.306z"/>
		<path d="M416.729,634.331H218.391c-2.681,0-4.855-2.175-4.855-4.855v-76.708c0-14.461,13.357-26.226,29.777-26.226h148.495
			c16.419,0,29.777,11.765,29.777,26.226v76.708C421.584,632.156,419.411,634.331,416.729,634.331z M223.246,624.62h188.628v-71.853
			c0-9.107-9.001-16.515-20.066-16.515H243.313c-11.065,0-20.066,7.407-20.066,16.515V624.62z"/>
		<path d="M282.991,607.739c-0.079,0-0.156,0-0.236,0c-23.126-0.196-23.009-23.349-22.945-35.786c0.01-2.12,0.021-4.121-0.063-5.728
			c-0.128-2.476-4.182-4.145-7.864-4.271c-2.4-0.099-7.019,0.572-7.39,3.642c-1.589,13.081-17.398,15.318-26.496,14.58
			c-2.673-0.217-4.663-2.56-4.445-5.234c0.217-2.67,2.555-4.631,5.224-4.445l0,0c0.152,0.006,15.234,0.865,16.077-6.071
			c0.924-7.609,7.873-12.516,17.365-12.176c8.228,0.282,16.787,5.001,17.227,13.472c0.098,1.883,0.087,4.019,0.075,6.281
			c-0.089,17.557,1.881,25.929,13.319,26.027c3.535,0.024,6.151-0.986,8.289-3.109c6.73-6.681,6.706-22.69,6.698-28.718
			l-0.001-0.711c0-5.083,2.478-9.489,6.979-12.404c3.523-2.283,8.131-3.54,12.975-3.54c10.952,0,18.601,5.945,18.601,14.459
			l-0.004,2.394c-0.026,10.857-0.054,22.087,5.299,27.451c2.804,2.813,7.179,4.179,13.372,4.179c5.698,0,7.467-5.371,7.467-7.326
			c0-2.683,2.173-4.855,4.855-4.855c2.682,0,4.855,2.173,4.855,4.855c0,6.871-5.459,17.036-17.178,17.036
			c-8.905,0-15.527-2.298-20.246-7.03c-8.199-8.218-8.167-21.494-8.136-34.335l0.004-2.368c0-3.459-5.453-4.749-8.891-4.749
			c-2.949,0-5.753,0.723-7.694,1.98c-2.284,1.479-2.548,3.137-2.548,4.254l0.001,0.698c0.012,7.806,0.038,26.088-9.567,35.623
			C294.006,605.747,288.967,607.739,282.991,607.739z"/>
		<path d="M416.729,591.956c-1.508,0-14.929-0.215-21.777-7.636c-2.882-3.124-4.216-7.112-3.86-11.534
			c0.276-3.423-0.429-5.881-2.095-7.305c-2.194-1.88-6.193-2.171-9.013-1.497c-6.068,1.461-5.385,7.862-5.186,9.131
			c0.412,2.635-1.374,5.129-4.005,5.562c-2.628,0.445-5.116-1.315-5.57-3.943c-0.987-5.706,0.353-17.271,12.491-20.19
			c4.835-1.163,12.35-0.929,17.596,3.559c2.863,2.451,6.133,7.12,5.46,15.465c-0.14,1.743,0.267,3.029,1.318,4.169
			c3.397,3.682,11.921,4.511,14.64,4.511c2.682,0,4.855,2.173,4.855,4.854C421.584,589.783,419.411,591.956,416.729,591.956z"/>
		<path d="M420.386,640.945H178.395c-2.682,0-4.855-2.173-4.855-4.854c0-2.683,2.174-4.855,4.855-4.855h241.991
			c2.682,0,4.855,2.173,4.855,4.855C425.241,638.772,423.067,640.945,420.386,640.945z"/>
	</g>
	<g class="sprite" id="rings" fill="rgb(0,40,8)">
		<path d="M769.374,194.396c-0.001,0-0.005,0-0.009,0c-1.467-0.002-2.856-0.664-3.776-1.807l0,0
			c-0.055-0.07-5.794-7.109-17.118-15.46c-13.608-10.035-15.486-18.143-15.486-25.407c0-13.415,8.948-23.152,21.272-23.152
			c5.886,0,11.286,3.512,15.038,7.702c3.661-4.349,8.874-7.702,15.473-7.702c12.163,0,20.99,9.737,20.99,23.152
			c0,7.266-1.874,15.372-15.484,25.407c-11.322,8.35-17.063,15.39-17.118,15.46C772.233,193.73,770.841,194.396,769.374,194.396z
			 M754.257,138.281c-7.984,0-11.562,6.75-11.562,13.441c0,3.617,0,9.083,11.539,17.593c6.994,5.157,12.026,9.851,15.139,13.027
			c3.11-3.176,8.144-7.871,15.135-13.027c11.539-8.51,11.539-13.976,11.539-17.593c0-6.691-3.485-13.441-11.279-13.441
			c-5.26,0-9.172,4.833-10.927,8.973c-0.779,1.842-2.647,3.004-4.608,2.959c-2.001-0.059-3.76-1.337-4.435-3.221
			C763.576,143.565,758.497,138.281,754.257,138.281z"/>
		<path d="M684.413,306.687c-41.728,0-75.676-33.95-75.676-75.679c0-41.728,33.948-75.675,75.676-75.675
			c41.729,0,75.674,33.947,75.674,75.675c0,20.973-8.383,40.476-23.604,54.913c-1.945,1.847-5.018,1.762-6.862-0.18
			c-1.848-1.946-1.765-5.018,0.183-6.864c13.268-12.586,20.573-29.585,20.573-47.869c0-36.373-29.59-65.964-65.963-65.964
			s-65.965,29.591-65.965,65.964c0,36.375,29.592,65.968,65.965,65.968c7.028,0,13.946-1.1,20.563-3.27
			c2.545-0.823,5.291,0.556,6.125,3.102c0.835,2.549-0.553,5.292-3.1,6.127C700.406,305.423,692.47,306.687,684.413,306.687z"/>
		<path d="M766.065,316.318c-36.288,0-65.813-29.524-65.813-65.814c0-21.879,10.831-42.27,28.972-54.541
			c2.224-1.506,5.241-0.92,6.743,1.301c1.502,2.221,0.92,5.239-1.301,6.741c-15.467,10.465-24.704,27.848-24.704,46.5
			c0,30.935,25.168,56.104,56.103,56.104c30.936,0,56.104-25.168,56.104-56.104c0-30.936-25.168-56.104-56.104-56.104
			c-2.258,0-4.53,0.134-6.752,0.402c-2.671,0.318-5.079-1.582-5.4-4.243c-0.318-2.663,1.58-5.08,4.243-5.4
			c2.605-0.312,5.265-0.471,7.909-0.471c36.289,0,65.814,29.525,65.814,65.815C831.88,286.793,802.354,316.318,766.065,316.318z"/>
	</g>
	<g class="sprite" id="dove" fill="rgb(0,40,8)">
		<path d="M969.392,279.156c-1.603,0-3.171-0.793-4.099-2.244c-5.325-8.345-16.364-13.047-29.145-18.49
			c-11.234-4.785-23.964-10.208-35.383-19.306c-25.656-20.446-10.283-89-8.442-96.75c0.504-2.127,2.37-3.656,4.555-3.73
			c2.226-0.14,4.153,1.32,4.805,3.41c4.713,15.148,49.595,54.631,68.067,64.225c22.073,11.461,20.307,39.458,20.222,40.643
			c-0.193,2.674-2.517,4.709-5.193,4.491c-2.672-0.193-4.681-2.513-4.492-5.181c0.019-0.294,1.322-22.854-15.012-31.334
			c-15.706-8.156-50.647-37.138-65.995-57.83c-4.09,23.941-7.143,62.762,7.539,74.462c10.384,8.275,21.949,13.201,33.134,17.965
			c13.67,5.823,26.585,11.323,33.526,22.202c1.443,2.259,0.782,5.262-1.479,6.705C971.189,278.909,970.285,279.156,969.392,279.156z
			"/>
		<path d="M992.323,221.296c-1.951,0-3.793-1.188-4.532-3.12c-1.813-4.727-4.704-8.563-8.594-11.402
			c-14.282-10.428-44.398-44.307-56.464-67.081c-2.195,6.617-4.821,15.368-6.858,24.673c-0.575,2.619-3.168,4.273-5.781,3.706
			c-2.621-0.575-4.278-3.162-3.706-5.781c4.444-20.302,11.366-37.512,11.658-38.234c0.822-2.031,2.904-3.262,5.07-3
			c2.173,0.256,3.905,1.933,4.233,4.097c2.366,15.687,40.762,61.503,57.573,73.776c5.428,3.964,9.441,9.269,11.934,15.772
			c0.96,2.503-0.292,5.311-2.796,6.271C993.49,221.191,992.901,221.296,992.323,221.296z"/>
		<path d="M981.782,324.775c-24.755,0.002-48.782-10.014-55.497-13.05c-9.564,2.89-46.958,13.484-61.54,7.133
			c-4.107-1.79-7.055-5.168-8.526-9.77c-4.644-14.519,6.185-37.088,6.305-37.286c2.112-3.52,4.96-3.343,27.123-1.989
			c10.953,0.671,24.586,1.506,36.262,1.506c9.526,0,20.256-3.713,31.024-10.737c2.246-1.468,5.253-0.831,6.718,1.413
			c1.465,2.248,0.833,5.255-1.414,6.72c-12.526,8.17-24.75,12.315-36.328,12.315c-11.972,0-25.77-0.844-36.854-1.523
			c-7.284-0.446-15.363-0.953-19.039-0.88c-2.338,5.593-7.13,20.102-4.465,27.751c0.826,2.365,2.15,3.175,3.077,3.577
			c9.425,4.113,39.695-2.758,56.561-8.051c1.184-0.374,2.464-0.273,3.577,0.264c0.534,0.261,54.047,25.803,84.273,4.167
			c29.273-20.958,22.012-57.124,19.626-69.01l-0.262-1.306c-1.055-5.375-2.762-11.763-4.411-17.942
			c-1.074-4.015-2.086-7.807-2.883-11.169c-0.493-2.088,0.443-4.254,2.303-5.324c4.771-2.748,6.463-6.376,6.463-13.866
			c0-0.145-0.015-0.286-0.024-0.429l-0.028-0.438c-0.088-1.69,0.707-3.304,2.102-4.262l0.256-0.174
			c-1.768-0.053-3.394-1.069-4.201-2.691c-3.072-6.178-9.246-10.014-16.113-10.014c-9.931,0-18.009,8.078-18.009,18.008
			c0,0.791,0.07,1.64,0.226,2.672c0.027,0.176,0.042,0.351,0.05,0.529c0.153,4.007,1.206,39.552-9.21,53.306
			c-1.616,2.136-4.662,2.561-6.802,0.939c-2.137-1.62-2.558-4.664-0.94-6.803c7.003-9.244,7.617-36.674,7.257-46.817
			c-0.198-1.4-0.29-2.624-0.29-3.826c0-15.285,12.436-27.719,27.719-27.719c9.38,0,17.922,4.643,23.028,12.318l16.058-2.155
			c2.222-0.317,4.369,0.969,5.177,3.067c0.809,2.098,0.068,4.476-1.783,5.749l-14.775,10.143
			c-0.153,6.517-1.522,13.521-8.211,18.792c0.606,2.392,1.297,4.975,2.015,7.659c1.691,6.333,3.44,12.882,4.559,18.578l0.253,1.265
			c2.691,13.407,10.884,54.207-23.493,78.819C1007.754,322.059,994.668,324.775,981.782,324.775z"/>
		<path d="M1021.831,180.826c0,2.261-1.829,4.085-4.088,4.085c-2.253,0-4.083-1.824-4.083-4.085c0-2.253,1.83-4.083,4.083-4.083
			C1020.002,176.742,1021.831,178.573,1021.831,180.826z"/>
	</g>
	<g class="sprite" id="drinks" fill="rgb(0,40,8)">
		<g>
			<g>
				<path d="M430.244,794.107c-0.001,0-0.002,0-0.003,0c-0.757,0-1.521-0.023-2.287-0.07c-9.967-0.602-19.104-5.049-25.728-12.524
					c-6.622-7.475-9.938-17.08-9.335-27.047l4.51-74.638c0.078-1.285,0.663-2.488,1.627-3.341c0.963-0.854,2.231-1.291,3.512-1.212
					l64.943,3.925c2.676,0.161,4.715,2.462,4.554,5.139l-4.51,74.635C466.336,778.676,449.96,794.107,430.244,794.107z
					 M406.802,685.26l-4.217,69.791c-0.446,7.379,2.008,14.489,6.911,20.021c4.901,5.535,11.665,8.826,19.044,9.272
					c15.33,0.952,28.38-10.809,29.294-25.954l4.217-69.791L406.802,685.26z"/>
				<path d="M446.906,726.832c-0.098,0-0.198-0.002-0.298-0.01l-47.011-2.841c-2.676-0.161-4.715-2.462-4.554-5.138
					c0.162-2.678,2.448-4.781,5.14-4.554l47.011,2.841c2.676,0.161,4.715,2.461,4.554,5.138
					C451.592,724.847,449.454,726.832,446.906,726.832z"/>
				<path d="M424.399,857.778c-0.099,0-0.198-0.002-0.298-0.01c-2.676-0.161-4.715-2.462-4.554-5.138l3.852-63.732
					c0.162-2.678,2.458-4.773,5.14-4.554c2.676,0.161,4.715,2.462,4.554,5.139l-3.853,63.73
					C429.085,855.792,426.946,857.778,424.399,857.778z"/>
			</g>
			<path d="M444.27,858.979c-0.099,0-0.198-0.002-0.298-0.01l-39.741-2.4c-2.676-0.161-4.715-2.462-4.554-5.139
				c0.161-2.678,2.471-4.773,5.14-4.554l39.741,2.401c2.676,0.161,4.715,2.462,4.554,5.138
				C448.957,856.992,446.817,858.979,444.27,858.979z"/>
		</g>
		<g>
			<g>
				<path d="M510.802,777.53L510.802,777.53c-18.367,0-34.248-13.72-36.942-31.912l-10.953-73.966
					c-0.393-2.653,1.439-5.121,4.092-5.514l64.36-9.531c1.277-0.193,2.572,0.139,3.604,0.903c1.033,0.768,1.721,1.914,1.91,3.188
					l10.953,73.966c1.462,9.879-1.009,19.735-6.959,27.755c-5.951,8.019-14.668,13.24-24.547,14.703
					C514.492,777.395,512.636,777.53,510.802,777.53z M473.225,675.031l10.242,69.164c1.994,13.468,13.746,23.624,27.334,23.624
					h0.001c1.359,0,2.737-0.1,4.095-0.302c7.313-1.082,13.767-4.947,18.172-10.885c4.404-5.936,6.234-13.232,5.151-20.546
					l-10.242-69.163L473.225,675.031z"/>
				<path d="M473.431,714.461c-2.367,0-4.44-1.732-4.797-4.145c-0.393-2.653,1.439-5.121,4.092-5.514l46.588-6.9
					c2.653-0.394,5.121,1.438,5.514,4.092c0.393,2.653-1.439,5.12-4.092,5.514l-46.588,6.9
					C473.907,714.443,473.667,714.461,473.431,714.461z"/>
				<path d="M524.956,840.335c-2.367,0-4.44-1.731-4.797-4.145l-9.353-63.158c-0.393-2.653,1.439-5.121,4.091-5.515
					c2.658-0.396,5.122,1.438,5.515,4.092l9.354,63.159c0.392,2.653-1.44,5.12-4.092,5.513
					C525.432,840.317,525.192,840.335,524.956,840.335z"/>
			</g>
			<path d="M505.263,843.252c-2.367,0-4.44-1.733-4.797-4.145c-0.392-2.653,1.439-5.121,4.092-5.514l39.384-5.832
				c2.654-0.392,5.122,1.439,5.514,4.092c0.393,2.653-1.439,5.12-4.091,5.513l-39.385,5.832
				C505.739,843.234,505.5,843.252,505.263,843.252z"/>
		</g>
	</g>
	<g class="sprite" id="camera" fill="rgb(0,40,8)">
		<path d="M819.024,854.848H621.696c-2.682,0-4.855-2.174-4.855-4.855V718.544c0-2.682,2.173-4.855,4.855-4.855h197.328
			c2.682,0,4.855,2.174,4.855,4.855v131.448C823.88,852.674,821.706,854.848,819.024,854.848z M626.552,845.137h187.617V723.399
			H626.552V845.137z"/>
		<path d="M715.551,839.14c-30.708,0-55.691-24.984-55.691-55.692c0-30.707,24.982-55.689,55.691-55.689
			c30.708,0,55.691,24.982,55.691,55.689C771.242,814.155,746.259,839.14,715.551,839.14z M715.551,737.469
			c-25.354,0-45.98,20.625-45.98,45.979c0,25.354,20.626,45.982,45.98,45.982s45.981-20.628,45.981-45.982
			C761.532,758.094,740.904,737.469,715.551,737.469z"/>
		<path d="M715.551,821.105c-20.762,0-37.653-16.894-37.653-37.658c0-20.762,16.892-37.653,37.653-37.653
			c20.76,0,37.651,16.892,37.651,37.653C753.202,804.212,736.311,821.105,715.551,821.105z M715.551,755.506
			c-15.408,0-27.942,12.534-27.942,27.941c0,15.41,12.535,27.947,27.942,27.947c15.408,0,27.941-12.537,27.941-27.947
			C743.492,768.04,730.959,755.506,715.551,755.506z"/>
		<path d="M819.024,773.438h-54.456c-2.682,0-4.855-2.174-4.855-4.855s2.174-4.855,4.855-4.855h49.601v-40.327H626.552v40.327h40.1
			c2.682,0,4.855,2.174,4.855,4.855s-2.173,4.855-4.855,4.855h-44.956c-2.682,0-4.855-2.174-4.855-4.855v-50.038
			c0-2.682,2.173-4.855,4.855-4.855h197.328c2.682,0,4.855,2.174,4.855,4.855v50.038
			C823.88,771.264,821.706,773.438,819.024,773.438z"/>
		<path d="M795.808,752.068H775.25c-2.682,0-4.855-2.173-4.855-4.855v-7.304c0-2.683,2.174-4.855,4.855-4.855h20.558
			c2.682,0,4.855,2.173,4.855,4.855v7.304C800.663,749.896,798.489,752.068,795.808,752.068z"/>
		<path d="M659.562,723.399h-27.047c-2.681,0-4.855-2.174-4.855-4.855v-15.958c0-2.682,2.174-4.855,4.855-4.855h27.047
			c2.682,0,4.855,2.174,4.855,4.855v15.958C664.417,721.226,662.244,723.399,659.562,723.399z M637.371,713.688h17.336v-6.247
			h-17.336V713.688z"/>
		<path d="M750.716,723.401c-1.826,0-3.575-1.035-4.4-2.798l-11.867-25.335h-37.797l-11.866,25.335
			c-1.14,2.428-4.03,3.475-6.458,2.337c-2.427-1.136-3.474-4.027-2.337-6.457l13.176-28.13c0.799-1.705,2.513-2.795,4.397-2.795
			h43.973c1.884,0,3.599,1.09,4.397,2.795l13.176,28.13c1.138,2.43,0.091,5.321-2.337,6.457
			C752.106,723.253,751.406,723.401,750.716,723.401z"/>
	</g>
	<g class="sprite" id="present" fill="rgb(0,40,8)">
		<path d="M1072.556,773.608H897.8c-2.682,0-4.855-2.173-4.855-4.855v-35.604c0-2.683,2.174-4.855,4.855-4.855h174.756
			c2.682,0,4.855,2.173,4.855,4.855v35.604C1077.411,771.436,1075.237,773.608,1072.556,773.608z M902.655,763.897H1067.7v-25.895
			H902.655V763.897z"/>
		<path d="M1062.876,851.216H907.48c-2.682,0-4.855-2.174-4.855-4.855v-77.607c0-2.682,2.174-4.855,4.855-4.855h155.396
			c2.682,0,4.855,2.174,4.855,4.855v77.607C1067.731,849.042,1065.558,851.216,1062.876,851.216z M912.336,841.506h145.685v-67.897
			H912.336V841.506z"/>
		<path d="M985.177,738.751c-0.303,0-0.606-0.029-0.908-0.086c-56.83-10.842-61.673-28.504-61.116-35.595
			c0.616-7.879,8.233-13.61,18.517-13.941c17.198-0.545,34.199,15.653,42.295,23.376c0.385,0.37,0.784,0.751,1.172,1.117
			c9.89-7.854,38.905-29.695,55.607-29.695c6.25,0,10.854,2.933,12.966,8.254c1.494,3.772,1.259,7.822-0.688,11.708
			c-9.375,18.724-60.746,33.113-66.573,34.692C986.032,738.693,985.605,738.751,985.177,738.751z M942.537,698.827l-0.558,0.009
			c-5.004,0.159-8.937,2.307-9.147,4.992c-0.321,4.113,8.463,16.572,52.153,25.084c20.504-5.686,53.849-18.375,59.353-29.37
			c0.912-1.823,0.663-2.978,0.344-3.78c-0.425-1.073-1.082-2.124-3.938-2.124c-13.326,0-42.396,21.608-52.472,29.934
			c-0.345,0.285-0.724,0.521-1.134,0.7c-0.614,0.271-1.35,0.427-2.025,0.427c0,0-0.004,0-0.006,0c-2.433,0-3.798-1.303-7.848-5.166
			C970.215,712.811,955.556,698.827,942.537,698.827z"/>
		<path d="M985.177,853.237c-2.682,0-4.854-2.173-4.854-4.855v-138.54c0-2.682,2.173-4.855,4.854-4.855s4.855,2.174,4.855,4.855
			v138.54C990.032,851.064,987.858,853.237,985.177,853.237z"/>
		<path d="M985.177,738.751c-0.35,0-0.698-0.038-1.041-0.114l-64.017-14.065c-2.621-0.574-4.276-3.164-3.702-5.783
			c0.576-2.619,3.172-4.274,5.785-3.699l62.934,13.825l79.557-18.938c2.615-0.629,5.229,0.989,5.848,3.598
			c0.622,2.608-0.99,5.227-3.599,5.847l-80.639,19.197C985.933,738.706,985.557,738.751,985.177,738.751z"/>
	</g>
</g>
</svg>
