<?xml version="1.0" standalone="no"?>
<!DOCTYPE svg PUBLIC "-//W3C//DTD SVG 20010904//EN"
 "http://www.w3.org/TR/2001/REC-SVG-20010904/DTD/svg10.dtd">
<svg version="1.0" xmlns="http://www.w3.org/2000/svg"
 width="615.000000pt" height="615.000000pt" viewBox="0 0 615.000000 615.000000"
 preserveAspectRatio="xMidYMid meet">
<metadata>
Created by potrace 1.14, written by Peter Selinger 2001-2017
</metadata>
<g transform="translate(0.000000,615.000000) scale(0.100000,-0.100000)"
fill="#000000" stroke="none">
<path d="M3068 6146 c-1 -2 -72 -7 -157 -10 -85 -4 -157 -8 -160 -10 -3 -2
-35 -7 -71 -10 -36 -4 -72 -9 -80 -11 -8 -2 -31 -6 -50 -9 -391 -58 -884 -261
-1234 -509 -62 -44 -160 -119 -235 -182 -78 -64 -254 -238 -309 -305 -15 -18
-38 -44 -50 -59 -13 -14 -49 -60 -80 -101 -31 -41 -59 -77 -62 -80 -9 -8 -125
-183 -133 -200 -4 -8 -17 -31 -28 -50 -42 -68 -119 -221 -164 -324 -39 -90
-129 -343 -140 -394 -2 -9 -13 -53 -24 -97 -93 -371 -111 -828 -45 -1220 22
-132 33 -183 89 -395 47 -177 198 -511 321 -711 160 -260 394 -535 624 -734
148 -128 393 -290 591 -394 167 -87 494 -215 602 -235 12 -2 60 -13 107 -24
100 -24 176 -39 245 -48 28 -3 59 -8 70 -10 53 -11 228 -19 390 -19 222 1 320
8 510 40 356 59 714 190 1032 376 391 230 759 578 1007 954 40 61 85 133 101
160 41 70 134 259 132 266 -1 3 3 12 10 20 33 41 156 398 189 554 9 39 17 79
20 90 2 11 9 49 15 85 5 36 12 79 15 95 16 91 27 270 27 425 0 129 -11 359
-18 370 -2 3 -6 30 -10 60 -6 47 -31 184 -49 269 -42 192 -125 428 -227 640
-320 662 -897 1211 -1559 1485 -63 26 -124 51 -135 56 -75 32 -382 119 -475
135 -19 3 -62 10 -95 16 -33 6 -78 13 -100 15 -22 2 -56 6 -75 9 -19 2 -96 7
-170 11 -74 3 -140 7 -147 9 -6 2 -13 2 -15 1z"/>
</g>
</svg>
